<?xml version="1.0" encoding="iso-8859-1"?>
<!-- Generator: Adobe Illustrator 18.0.0, SVG Export Plug-In . SVG Version: 6.00 Build 0)  -->
<!DOCTYPE svg PUBLIC "-//W3C//DTD SVG 1.1//EN" "http://www.w3.org/Graphics/SVG/1.1/DTD/svg11.dtd">
<svg xmlns="http://www.w3.org/2000/svg" xmlns:xlink="http://www.w3.org/1999/xlink" version="1.1" id="Capa_1" x="0px" y="0px" viewBox="0 0 488.965 488.965" style="enable-background:new 0 0 488.965 488.965;" xml:space="preserve" width="512px" height="512px">
<g>
	<path d="M356.118,169.877c18.652,0,33.767-15.116,33.767-33.768c0-18.653-15.115-33.768-33.767-33.768   c-18.653,0-33.768,15.115-33.768,33.768C322.35,154.761,337.465,169.877,356.118,169.877z" fill="#FFFFFF"/>
	<path d="M125.17,169.877c18.653,0,33.767-15.116,33.767-33.768c0-18.653-15.114-33.768-33.767-33.768   c-18.653,0-33.769,15.115-33.769,33.768C91.402,154.762,106.517,169.877,125.17,169.877z" fill="#FFFFFF"/>
	<circle cx="98.611" cy="296.323" r="2.632" fill="#FFFFFF"/>
	<circle cx="132.016" cy="313.153" r="14.198" fill="#FFFFFF"/>
	<circle cx="113.156" cy="334.594" r="5.248" fill="#FFFFFF"/>
	<circle cx="230.807" cy="70.06" r="28.389" fill="#FFFFFF"/>
	<path d="M212.945,172.514c-7.18,0-13,5.82-13,13v68.03c0,7.18,5.82,13,13,13c7.18,0,13-5.82,13-13v-68.03   C225.945,178.334,220.124,172.514,212.945,172.514z" fill="#FFFFFF"/>
	<path d="M484.202,142.058c-5.551-4.54-13.731-3.721-18.27,1.828l-35.833,43.804l-41.584-10.613   c-1.173-0.299-5.521-0.704-6.573-0.704l-116.864,0.101c1.502,2.674,2.367,5.754,2.367,9.039v15.73h47.736v228.965   c0,9.643,7.989,17.42,17.71,17.074c9.258-0.329,16.461-8.219,16.461-17.484v-92.204c0-3.603,2.718-6.749,6.314-6.981   c3.939-0.255,7.213,2.865,7.213,6.749v92.846c0,9.642,7.99,17.42,17.709,17.074c9.258-0.329,16.463-8.22,16.463-17.484V206.055   l34.646,8.842c1.065,0.272,2.143,0.404,3.211,0.404c3.839,0,7.549-1.706,10.049-4.763l41.074-50.21   C490.571,154.778,489.752,146.599,484.202,142.058z M370.268,249.815l-9.949,9.947c-2.32,2.32-6.083,2.32-8.403,0l-9.948-9.947   c-1.498-1.499-2.085-3.683-1.541-5.731l9.544-35.835c-2.808-0.114-5.055-2.41-5.055-5.247v-11.867c0-2.91,2.359-5.268,5.269-5.268   h11.865c2.91,0,5.269,2.359,5.269,5.268v11.867c0,2.837-2.247,5.132-5.055,5.247l9.544,35.835   C372.353,246.132,371.766,248.316,370.268,249.815z" fill="#FFFFFF"/>
	<path d="M44.699,168.296l-19.694-48.2c-2.712-6.638-10.292-9.821-16.93-7.108c-6.638,2.712-9.82,10.292-7.108,16.93l22.454,54.956   c1.714,4.195,5.492,7.193,9.966,7.909l50.845,8.143v67.839l-24.221,75.671c-4.073,12.726,5.42,25.734,18.783,25.734h5.438v60.04   c0,9.643,7.99,17.42,17.709,17.074c9.258-0.329,16.462-8.219,16.462-17.484v-59.631h13.527v60.04   c0,9.642,7.989,17.42,17.709,17.074c9.259-0.329,16.462-8.22,16.462-17.484v-59.63h5.439c13.361,0,22.857-13.008,18.783-25.734   l-24.222-75.671v-67.52h28.343v-15.73c0-3.26,0.85-6.319,2.331-8.979l-100.093,0.087L44.699,168.296z M149.93,288.735   c2.053,0,3.716-1.664,3.716-3.716c0-0.009-0.002-0.017-0.003-0.026h0.613l7.415,23.163c-2.53,1.625-4.21,4.457-4.21,7.687   c0,5.046,4.09,9.136,9.136,9.136c0.153,0,0.301-0.016,0.452-0.023l7.819,24.426c0.447,1.396-0.028,2.469-0.505,3.123   c-0.478,0.654-1.354,1.434-2.821,1.434h-1.136c-0.534-4.797-4.598-8.527-9.538-8.527c-4.939,0-9.003,3.731-9.538,8.527H95.678   c-1.192-0.879-2.661-1.405-4.256-1.405c-1.595,0-3.064,0.526-4.257,1.405h-8.372c-1.467,0-2.343-0.78-2.821-1.433   c-0.478-0.654-0.952-1.727-0.505-3.124l6.762-21.128c1.308,0.694,2.798,1.091,4.382,1.091c5.172,0,9.366-4.193,9.366-9.366   c0-4.753-3.543-8.67-8.13-9.276l8.229-25.711h50.138c0,0.009-0.003,0.017-0.003,0.026   C146.214,287.071,147.878,288.735,149.93,288.735z" fill="#FFFFFF"/>
	<path d="M293.536,123.659l21.334-25c4.482-5.252,3.857-13.142-1.395-17.623c-5.252-4.482-13.141-3.856-17.623,1.394l-17.67,21.02   H211.43l-21.139-19.796l-9.681-30.551c-2.085-6.581-9.105-10.228-15.691-8.141c-6.581,2.085-10.225,9.11-8.141,15.691   l10.667,33.667c0.646,2.042,1.809,3.884,3.372,5.349l28.67,26.848c0.048,0.045,0.099,0.082,0.147,0.125v46.042   c3.365-3.49,8.079-5.67,13.31-5.67c8.766,0,16.091,6.104,18,14.289c1.909-8.185,9.234-14.289,18-14.289   c5.535,0,10.488,2.443,13.878,6.295v-44.92l21.406-0.345C287.817,127.985,291.207,126.389,293.536,123.659z" fill="#FFFFFF"/>
	<path d="M248.945,172.514c-7.18,0-13,5.82-13,13v68.03c0,7.18,5.82,13,13,13s13-5.82,13-13v-68.03   C261.945,178.334,256.124,172.514,248.945,172.514z" fill="#FFFFFF"/>
</g>
<g>
</g>
<g>
</g>
<g>
</g>
<g>
</g>
<g>
</g>
<g>
</g>
<g>
</g>
<g>
</g>
<g>
</g>
<g>
</g>
<g>
</g>
<g>
</g>
<g>
</g>
<g>
</g>
<g>
</g>
</svg>
